<?xml version="1.0" encoding="UTF-8" standalone="no"?>
<!-- Created with Inkscape (http://www.inkscape.org/) -->

<svg
   xmlns:dc="http://purl.org/dc/elements/1.1/"
   xmlns:cc="http://creativecommons.org/ns#"
   xmlns:rdf="http://www.w3.org/1999/02/22-rdf-syntax-ns#"
   xmlns:svg="http://www.w3.org/2000/svg"
   xmlns="http://www.w3.org/2000/svg"
   xmlns:sodipodi="http://sodipodi.sourceforge.net/DTD/sodipodi-0.dtd"
   xmlns:inkscape="http://www.inkscape.org/namespaces/inkscape"
   width="210mm"
   height="297mm"
   viewBox="0 0 210 297"
   version="1.1"
   id="svg8"
   inkscape:version="0.92.1 r15371"
   sodipodi:docname="playing_at_learning.svg">
  <defs
     id="defs2" />
  <sodipodi:namedview
     id="base"
     pagecolor="#ffffff"
     bordercolor="#666666"
     borderopacity="1.0"
     inkscape:pageopacity="0.0"
     inkscape:pageshadow="2"
     inkscape:zoom="0.7"
     inkscape:cx="473.33205"
     inkscape:cy="591.62703"
     inkscape:document-units="mm"
     inkscape:current-layer="layer1"
     showgrid="false"
     inkscape:window-width="1920"
     inkscape:window-height="1057"
     inkscape:window-x="1912"
     inkscape:window-y="-6"
     inkscape:window-maximized="1" />
  <metadata
     id="metadata5">
    <rdf:RDF>
      <cc:Work
         rdf:about="">
        <dc:format>image/svg+xml</dc:format>
        <dc:type
           rdf:resource="http://purl.org/dc/dcmitype/StillImage" />
        <dc:title />
      </cc:Work>
    </rdf:RDF>
  </metadata>
  <g
     inkscape:label="Layer 1"
     inkscape:groupmode="layer"
     id="layer1">
    <path
       style="fill:none;stroke:#000000;stroke-width:0.01;stroke-linecap:butt;stroke-linejoin:miter;stroke-opacity:1;stroke-miterlimit:4;stroke-dasharray:none"
       d="M 43.845237,135.41517 C 166.30953,123.69791 168.57738,123.50893 168.57738,123.50893 l -61.23214,51.78273 -16.06399,-7.9375 -25.135418,12.47322 v -27.21429 z"
       id="path4496"
       inkscape:connector-curvature="0"
       sodipodi:nodetypes="ccccccc"
       inkscape:export-filename="H:\Downloads\playing_at_learning.png"
       inkscape:export-xdpi="150.01511"
       inkscape:export-ydpi="150.01511" />
    <path
       style="fill:none;stroke:#000000;stroke-width:0.01;stroke-linecap:butt;stroke-linejoin:miter;stroke-opacity:1;stroke-miterlimit:4;stroke-dasharray:none"
       d="M 66.14583,152.61309 168.57738,123.50893 79.091517,161.21205 66.14583,179.82738"
       id="path4498"
       inkscape:connector-curvature="0"
       sodipodi:nodetypes="cccc"
       inkscape:export-filename="H:\Downloads\playing_at_learning.png"
       inkscape:export-xdpi="150.01511"
       inkscape:export-ydpi="150.01511" />
    <path
       style="fill:none;stroke:#000000;stroke-width:0.01;stroke-linecap:butt;stroke-linejoin:miter;stroke-opacity:1;stroke-miterlimit:4;stroke-dasharray:none"
       d="M 108.29017,225.65699 C 44.506696,224.99553 29.482142,165.84226 30.049106,162.34598 l -6.992559,-5.66963"
       id="path4504"
       inkscape:connector-curvature="0"
       sodipodi:nodetypes="ccc"
       inkscape:export-filename="H:\Downloads\playing_at_learning.png"
       inkscape:export-xdpi="150.01511"
       inkscape:export-ydpi="150.01511" />
    <path
       style="fill:none;stroke:#000000;stroke-width:0.01;stroke-linecap:butt;stroke-linejoin:miter;stroke-opacity:1;stroke-miterlimit:4;stroke-dasharray:none"
       d="m 23.056547,156.67635 -4.252232,6.52007"
       id="path4506"
       inkscape:connector-curvature="0"
       sodipodi:nodetypes="cc"
       inkscape:export-filename="H:\Downloads\playing_at_learning.png"
       inkscape:export-xdpi="150.01511"
       inkscape:export-ydpi="150.01511" />
    <path
       style="fill:none;stroke:#000000;stroke-width:0.01;stroke-linecap:butt;stroke-linejoin:miter;stroke-opacity:1;stroke-miterlimit:4;stroke-dasharray:none"
       d="M 107.62872,236.33482 C 36.758185,233.31101 21.639136,177.93748 18.804315,163.19642"
       id="path4512"
       inkscape:connector-curvature="0"
       sodipodi:nodetypes="cc"
       inkscape:export-filename="H:\Downloads\playing_at_learning.png"
       inkscape:export-xdpi="150.01511"
       inkscape:export-ydpi="150.01511" />
    <path
       style="fill:none;stroke:#000000;stroke-width:0.01;stroke-linecap:butt;stroke-linejoin:miter;stroke-opacity:1;stroke-miterlimit:4;stroke-dasharray:none"
       d="m 108.29017,225.65699 -4.7247,5.19717 4.06325,5.48066"
       id="path4514"
       inkscape:connector-curvature="0"
       inkscape:export-filename="H:\Downloads\playing_at_learning.png"
       inkscape:export-xdpi="150.01511"
       inkscape:export-ydpi="150.01511" />
    <path
       style="fill:none;stroke:#000000;stroke-width:0.01;stroke-linecap:butt;stroke-linejoin:miter;stroke-opacity:1;stroke-miterlimit:4;stroke-dasharray:none"
       d="m 16.503049,145.69308 5.514064,-4.41927 5.05879,4.40781"
       id="path4516"
       inkscape:connector-curvature="0"
       sodipodi:nodetypes="ccc"
       inkscape:export-filename="H:\Downloads\playing_at_learning.png"
       inkscape:export-xdpi="150.01511"
       inkscape:export-ydpi="150.01511" />
    <path
       style="fill:none;stroke:#000000;stroke-width:0.01;stroke-linecap:butt;stroke-linejoin:miter;stroke-opacity:1;stroke-miterlimit:4;stroke-dasharray:none"
       d="m 90.003204,56.346589 5.81376,3.945822 -4.913691,6.425594"
       id="path4518"
       inkscape:connector-curvature="0"
       sodipodi:nodetypes="ccc"
       inkscape:export-filename="H:\Downloads\playing_at_learning.png"
       inkscape:export-xdpi="150.01511"
       inkscape:export-ydpi="150.01511" />
    <path
       style="fill:none;stroke:#000000;stroke-width:0.01;stroke-linecap:butt;stroke-linejoin:miter;stroke-opacity:1;stroke-miterlimit:4;stroke-dasharray:none"
       d="m 106.40128,54.917713 3.87327,5.469191 -3.65087,5.435781"
       id="path4520"
       inkscape:connector-curvature="0"
       sodipodi:nodetypes="ccc"
       inkscape:export-filename="H:\Downloads\playing_at_learning.png"
       inkscape:export-xdpi="150.01511"
       inkscape:export-ydpi="150.01511" />
    <path
       style="fill:none;stroke:#000000;stroke-width:0.01;stroke-linecap:butt;stroke-linejoin:miter;stroke-opacity:1;stroke-miterlimit:4;stroke-dasharray:none"
       d="m 184.49152,128.9113 6.86466,5.73171 4.7247,-5.89778"
       id="path4522"
       inkscape:connector-curvature="0"
       sodipodi:nodetypes="ccc"
       inkscape:export-filename="H:\Downloads\playing_at_learning.png"
       inkscape:export-xdpi="150.01511"
       inkscape:export-ydpi="150.01511" />
    <path
       style="fill:none;stroke:#000000;stroke-width:0.01;stroke-linecap:butt;stroke-linejoin:miter;stroke-opacity:1;stroke-miterlimit:4;stroke-dasharray:none"
       d="m 187.27099,145.33804 5.32508,3.95056 5.33081,-3.98971"
       id="path4524"
       inkscape:connector-curvature="0"
       sodipodi:nodetypes="ccc"
       inkscape:export-filename="H:\Downloads\playing_at_learning.png"
       inkscape:export-xdpi="150.01511"
       inkscape:export-ydpi="150.01511" />
    <path
       style="fill:none;stroke:#000000;stroke-width:0.01;stroke-linecap:butt;stroke-linejoin:miter;stroke-opacity:1;stroke-miterlimit:4;stroke-dasharray:none"
       d="m 123.46457,223.74517 -5.06353,6.73102 6.34256,4.64642"
       id="path4526"
       inkscape:connector-curvature="0"
       sodipodi:nodetypes="ccc"
       inkscape:export-filename="H:\Downloads\playing_at_learning.png"
       inkscape:export-xdpi="150.01511"
       inkscape:export-ydpi="150.01511" />
    <path
       style="fill:none;stroke:#000000;stroke-width:0.01;stroke-linecap:butt;stroke-linejoin:miter;stroke-opacity:1;stroke-miterlimit:4;stroke-dasharray:none"
       d="m 79.091516,161.21205 12.189733,6.14211"
       id="path4528"
       inkscape:connector-curvature="0"
       inkscape:export-filename="H:\Downloads\playing_at_learning.png"
       inkscape:export-xdpi="150.01511"
       inkscape:export-ydpi="150.01511" />
    <path
       style="fill:none;stroke:#000000;stroke-width:0.01;stroke-linecap:butt;stroke-linejoin:miter;stroke-opacity:1;stroke-miterlimit:4;stroke-dasharray:none"
       d="m 187.27099,145.33804 c 0,0 0.59158,64.88704 -63.80642,78.40713"
       id="path4534"
       inkscape:connector-curvature="0"
       inkscape:export-filename="H:\Downloads\playing_at_learning.png"
       inkscape:export-xdpi="150.01511"
       inkscape:export-ydpi="150.01511" />
    <path
       style="fill:none;stroke:#000000;stroke-width:0.01;stroke-linecap:butt;stroke-linejoin:miter;stroke-opacity:1;stroke-miterlimit:4;stroke-dasharray:none"
       d="m 197.92688,145.29889 c 0,0 2.78363,72.98124 -73.18328,89.82372"
       id="path4540"
       inkscape:connector-curvature="0"
       inkscape:export-filename="H:\Downloads\playing_at_learning.png"
       inkscape:export-xdpi="150.01511"
       inkscape:export-ydpi="150.01511" />
    <path
       style="fill:none;stroke:#000000;stroke-width:0.01;stroke-linecap:butt;stroke-linejoin:miter;stroke-opacity:1;stroke-miterlimit:4;stroke-dasharray:none"
       d="m 106.40128,54.917712 c 0,0 74.09381,-0.311181 89.6796,73.827518"
       id="path4544"
       inkscape:connector-curvature="0"
       inkscape:export-filename="H:\Downloads\playing_at_learning.png"
       inkscape:export-xdpi="150.01511"
       inkscape:export-ydpi="150.01511" />
    <path
       style="fill:none;stroke:#000000;stroke-width:0.01;stroke-linecap:butt;stroke-linejoin:miter;stroke-opacity:1;stroke-miterlimit:4;stroke-dasharray:none"
       d="m 106.62368,65.822684 c 0,0 63.73287,-0.111692 77.86784,63.088616"
       id="path4546"
       inkscape:connector-curvature="0"
       inkscape:export-filename="H:\Downloads\playing_at_learning.png"
       inkscape:export-xdpi="150.01511"
       inkscape:export-ydpi="150.01511" />
    <path
       style="fill:none;stroke:#000000;stroke-width:0.01;stroke-linecap:butt;stroke-linejoin:miter;stroke-opacity:1;stroke-miterlimit:4;stroke-dasharray:none"
       d="m 16.503049,145.69308 c 0,0 -1.105272,-75.054961 73.500154,-89.346491"
       id="path4548"
       inkscape:connector-curvature="0"
       inkscape:export-filename="H:\Downloads\playing_at_learning.png"
       inkscape:export-xdpi="150.01511"
       inkscape:export-ydpi="150.01511" />
    <path
       style="fill:none;stroke:#000000;stroke-width:0.01;stroke-linecap:butt;stroke-linejoin:miter;stroke-opacity:1;stroke-miterlimit:4;stroke-dasharray:none"
       d="m 27.075902,145.68162 c 0,0 -1.373523,-62.427157 63.827371,-78.963615"
       id="path4550"
       inkscape:connector-curvature="0"
       inkscape:export-filename="H:\Downloads\playing_at_learning.png"
       inkscape:export-xdpi="150.01511"
       inkscape:export-ydpi="150.01511" />
    <path
       style="fill:#b3ffff;fill-opacity:1;stroke-width:0.00674916;stroke-miterlimit:4;stroke-dasharray:none"
       d="m 251.13975,678.21044 c 0.4436,-0.62674 11.19371,-16.08597 23.88913,-34.35382 12.69542,-18.26786 23.27842,-33.47767 23.51779,-33.79958 l 0.43521,-0.5853 22.62108,11.36728 c 12.44159,6.252 22.71297,11.45735 22.8253,11.56744 0.15165,0.14863 -11.88567,6.19891 -46.76179,23.50373 -25.83131,12.81696 -47.04864,23.33422 -47.14964,23.37168 -0.10099,0.0375 0.17932,-0.44468 0.62292,-1.07143 z"
       id="path4509"
       inkscape:connector-curvature="0"
       transform="scale(0.26458333)"
       inkscape:export-filename="H:\Downloads\playing_at_learning.png"
       inkscape:export-xdpi="150.01511"
       inkscape:export-ydpi="150.01511" />
    <path
       style="fill:#3a365a;fill-opacity:1;stroke:#3a365c;stroke-width:0.20016716;stroke-miterlimit:4;stroke-dasharray:none;stroke-opacity:1"
       d="m 66.345283,179.62437 c 0.01277,-0.0334 2.885881,-4.18978 6.384717,-9.23649 l 6.361517,-9.17583 5.411021,2.73016 c 2.976061,1.50158 5.674256,2.86936 5.995986,3.0395 0.534153,0.28248 0.57728,0.31499 0.496487,0.37426 -0.145555,0.10678 -4.071651,2.10177 -6.675831,3.39223 -1.337223,0.66265 -5.924378,2.94451 -10.193676,5.07081 -4.269298,2.1263 -7.7716,3.866 -7.782891,3.866 -0.01129,0 -0.0101,-0.0273 0.0027,-0.0606 z"
       id="path4513"
       inkscape:connector-curvature="0"
       inkscape:export-filename="H:\Downloads\playing_at_learning.png"
       inkscape:export-xdpi="150.01511"
       inkscape:export-ydpi="150.01511" />
    <path
       style="fill:#3a365a;fill-opacity:1;stroke-width:0.00674916;stroke-miterlimit:4;stroke-dasharray:none"
       d="m 400.97218,892.85878 c -85.28482,-4.82113 -155.21328,-29.41252 -211.25,-74.28927 -8.9887,-7.19855 -15.60898,-13.16281 -24.74551,-22.29341 -7.00562,-7.00107 -10.44881,-10.66919 -15.5132,-16.52663 -27.3834,-31.67144 -49.00111,-69.21307 -63.932877,-111.02678 l -1.386959,-3.88393 h 22.092726 22.09272 l 0.85166,2.00893 c 5.49888,12.9709 13.15417,27.93826 20.80111,40.66964 31.76299,52.88213 75.3988,92.9752 127.58385,117.22546 33.2032,15.42945 69.61553,24.53109 109.29934,27.32049 6.46141,0.45417 10.24368,0.63184 15.98214,0.75075 2.99554,0.0621 5.58286,0.16155 5.74959,0.22107 0.23446,0.0837 -1.67782,2.28753 -8.4375,9.72394 -4.80736,5.28866 -8.74066,9.68675 -8.74066,9.77356 0,0.0868 3.32032,4.63896 7.37848,10.11593 4.05816,5.47694 7.43791,10.05853 7.51054,10.1813 0.15152,0.25609 -1.1887,0.26337 -5.33545,0.029 z"
       id="path4515"
       inkscape:connector-curvature="0"
       transform="scale(0.26458333)"
       inkscape:export-filename="H:\Downloads\playing_at_learning.png"
       inkscape:export-xdpi="150.01511"
       inkscape:export-ydpi="150.01511" />
    <path
       style="fill:#3a365a;fill-opacity:1;stroke-width:0.00674916;stroke-miterlimit:4;stroke-dasharray:none"
       d="m 82.450589,659.70483 c -3.276816,-9.93076 -6.192547,-20.2407 -8.479796,-29.9843 -1.57332,-6.70228 -2.764152,-12.48595 -2.655977,-12.89962 0.08445,-0.32291 15.361157,-23.86358 15.732368,-24.24281 0.152653,-0.15595 3.421595,2.40474 13.238426,10.37018 l 13.03571,10.57726 0.1316,1.82848 c 0.64311,8.9355 5.98251,27.34814 13.01214,44.87161 0.97183,2.4226 1.76697,4.45161 1.76697,4.50892 0,0.0573 -9.91967,0.10421 -22.04371,0.10421 H 84.144612 Z"
       id="path4517"
       inkscape:connector-curvature="0"
       transform="scale(0.26458333)"
       inkscape:export-filename="H:\Downloads\playing_at_learning.png"
       inkscape:export-xdpi="150.01511"
       inkscape:export-ydpi="150.01511" />
    <path
       style="fill:#3a365a;fill-opacity:1;stroke-width:0.00674916;stroke-miterlimit:4;stroke-dasharray:none"
       d="m 62.518018,547.72066 c 0.0013,-12.79168 2.343961,-35.41066 5.555324,-53.63793 12.332031,-69.99499 40.889198,-131.75561 82.477268,-178.37368 1.52389,-1.70821 2.95734,-3.33544 3.18544,-3.61608 l 0.41473,-0.51024 h 31.86936 31.86937 l -3.26624,2.62254 c -15.21031,12.21273 -29.21587,26.06462 -41.76428,41.30603 -32.06419,38.94547 -54.36632,87.53557 -64.87263,141.33929 -3.33178,17.06235 -5.1311,32.74748 -5.75111,50.13392 -0.0622,1.74331 -0.14488,3.16965 -0.1838,3.16965 -0.0389,0 -4.267902,-3.65761 -9.397727,-8.12802 -5.188398,-4.52146 -9.429133,-8.0888 -9.557233,-8.03966 -0.126654,0.0486 -4.708237,3.67836 -10.181296,8.06612 -5.47306,4.38777 -10.051463,8.05563 -10.174231,8.15081 -0.176326,0.13669 -0.223158,-0.38482 -0.222945,-2.48275 z"
       id="path4519"
       inkscape:connector-curvature="0"
       transform="scale(0.26458333)"
       inkscape:export-filename="H:\Downloads\playing_at_learning.png"
       inkscape:export-xdpi="150.01511"
       inkscape:export-ydpi="150.01511" />
    <path
       style="fill:#59978e;fill-opacity:1;stroke-width:0.00674916;stroke-miterlimit:4;stroke-dasharray:none"
       d="m 155.1063,310.64801 c 1.31104,-1.5801 13.26949,-13.48249 16.57913,-16.50141 26.53751,-24.20644 55.36242,-42.7032 89.01786,-57.12219 23.5006,-10.06836 50.1269,-18.20061 76.42857,-23.34296 l 3.03572,-0.59353 9.55357,6.48064 c 5.25446,3.56435 10.16271,6.90202 10.90723,7.41704 l 1.35366,0.93641 -9.22404,12.05151 -9.22403,12.0515 -1.41534,0.39023 c -0.77843,0.21462 -2.82159,0.76598 -4.54034,1.22524 -30.03816,8.0263 -58.76027,19.66637 -83.83929,33.97713 -11.53627,6.58291 -23.82231,14.72036 -33.52894,22.20731 l -2.27894,1.7578 h -31.80018 -31.80019 z"
       id="path4521"
       inkscape:connector-curvature="0"
       transform="scale(0.26458333)"
       inkscape:export-filename="H:\Downloads\playing_at_learning.png"
       inkscape:export-xdpi="150.01511"
       inkscape:export-ydpi="150.01511" />
    <path
       style="fill:#59978e;fill-opacity:1;stroke-width:0.00674916;stroke-miterlimit:4;stroke-dasharray:none"
       d="m 62.58244,547.53934 c 0.0053,-13.30231 2.781031,-38.67151 6.24768,-57.10242 3.799423,-20.20015 8.012328,-36.61164 14.099653,-54.92562 5.88063,-17.69213 11.738604,-31.98213 19.654927,-47.94643 9.50239,-19.16282 19.67945,-35.80344 31.64379,-51.74107 l 2.11133,-2.8125 h 28.50292 28.50292 l -3.99818,4.06535 c -39.26297,39.92263 -66.91894,92.62131 -79.86565,152.18465 -4.19414,19.29577 -6.40059,36.32268 -7.26608,56.07132 -0.10976,2.50439 -0.21485,4.56875 -0.23354,4.58745 -0.0187,0.0187 -2.081249,-1.73775 -4.583451,-3.90322 -7.670729,-6.63842 -11.633482,-10.02992 -12.990865,-11.11816 l -1.29855,-1.04107 -1.112164,0.86729 c -0.611689,0.477 -5.113977,4.06744 -10.005084,7.97875 -4.891108,3.9113 -9.009411,7.15616 -9.151786,7.2108 -0.218457,0.0838 -0.258709,-0.28691 -0.25787,-2.37512 z"
       id="path4523"
       inkscape:connector-curvature="0"
       transform="scale(0.26458333)"
       inkscape:export-filename="H:\Downloads\playing_at_learning.png"
       inkscape:export-xdpi="150.01511"
       inkscape:export-ydpi="150.01511" />
    <path
       style="fill:#59978e;fill-opacity:1;stroke-width:0.00674916;stroke-miterlimit:4;stroke-dasharray:none"
       d="m 136.53978,332.84451 c 0.11397,-0.31935 4.36457,-5.66135 7.39796,-9.2975 2.59662,-3.11258 6.0771,-7.13857 9.53313,-11.02728 l 0.83363,-0.93799 31.66064,0.0451 31.66065,0.0451 -3.54896,2.87914 c -6.51804,5.28783 -11.82952,9.95479 -17.68416,15.53827 l -3.06378,2.92188 h -28.42432 c -17.53392,0 -28.40151,-0.0639 -28.36479,-0.16679 z"
       id="path4525"
       inkscape:connector-curvature="0"
       transform="scale(0.26458333)"
       inkscape:export-filename="H:\Downloads\playing_at_learning.png"
       inkscape:export-xdpi="150.01511"
       inkscape:export-ydpi="150.01511" />
    <path
       style="fill:#59978e;fill-opacity:1;stroke:#59978e;stroke-width:0.10097887;stroke-miterlimit:4;stroke-dasharray:none;stroke-opacity:1"
       d="m 93.019006,168.26174 c -12.667244,-6.30327 -14.145742,-7.07134 -13.844143,-7.19199 0.185714,-0.0742 2.282596,-0.95529 4.659735,-1.95779 2.377141,-1.0025 11.494014,-4.83826 20.259722,-8.52394 24.17458,-10.16458 41.26466,-17.35306 53.21552,-22.3837 5.94286,-2.50159 10.92675,-4.5813 11.07533,-4.62156 0.20935,-0.0567 -6.37971,5.58814 -11.53668,9.88356 -0.58516,0.48738 -6.82449,5.75678 -17.48691,14.76849 -2.14585,1.81364 -4.15843,3.50987 -4.47239,3.7694 -0.51783,0.42803 -3.01529,2.53713 -18.28613,15.44246 -2.62876,2.22155 -5.03736,4.25153 -5.35247,4.51105 -0.31508,0.25954 -1.33589,1.12408 -2.26842,1.92121 -0.93256,0.79713 -1.71486,1.44717 -1.73846,1.44451 -0.0236,-0.003 -6.42471,-3.1804 -14.224704,-7.0617 z"
       id="path4527"
       inkscape:connector-curvature="0"
       inkscape:export-filename="H:\Downloads\playing_at_learning.png"
       inkscape:export-xdpi="150.01511"
       inkscape:export-ydpi="150.01511" />
    <path
       style="fill:#59978e;fill-opacity:1;stroke-width:0.02699663;stroke-miterlimit:4;stroke-dasharray:none"
       d="m 137.90122,331.4174 c 1.41336,-2.59272 14.7841,-17.97641 22.10884,-25.43732 45.30055,-46.14269 103.32728,-76.64014 173.51947,-91.19768 l 6.61661,-1.37225 10.20274,6.95005 c 5.6115,3.82253 10.34831,7.19519 10.52625,7.4948 0.17792,0.2996 -3.69435,5.81616 -8.60506,12.25902 l -8.92857,11.71427 -6.07143,1.58531 c -20.08358,5.24401 -46.44609,15.15918 -66.17244,24.88803 -17.99231,8.87364 -32.31268,17.5161 -47.70407,28.7898 l -5.66222,4.1474 -10.05206,0.14681 -10.05207,0.14681 9.58958,0.38891 9.58959,0.3889 -4.94673,4.02773 c -2.7207,2.21526 -5.59287,4.62598 -6.38261,5.35715 -0.78974,0.73117 -3.80208,3.49905 -6.6941,6.15083 l -5.25821,4.82143 h -28.15246 c -26.59527,0 -28.11477,-0.0691 -27.47105,-1.25 z"
       id="path4529"
       inkscape:connector-curvature="0"
       transform="scale(0.26458333)"
       inkscape:export-filename="H:\Downloads\playing_at_learning.png"
       inkscape:export-xdpi="150.01511"
       inkscape:export-ydpi="150.01511" />
    <path
       style="fill:#59978e;fill-opacity:1;stroke-width:0.02699663;stroke-miterlimit:4;stroke-dasharray:none"
       d="m 137.2744,332.13169 c 0.01,-1.19201 13.10556,-16.18334 22.84136,-26.14722 44.7524,-45.80084 101.32809,-75.80161 171.25398,-90.81198 l 8.74253,-1.87668 10.69118,7.29703 10.6912,7.29703 -1.32323,1.85305 c -0.72778,1.01918 -4.75588,6.35305 -8.95133,11.85305 l -7.62809,10 -13.69668,4.04148 c -40.51324,11.95424 -76.52539,29.35484 -106.02211,51.22849 -3.24328,2.40509 -6.21649,4.37289 -6.60714,4.37289 -0.39066,0 -0.71029,0.27645 -0.71029,0.61434 0,0.33789 -3.77678,3.84654 -8.39285,7.797 -4.61608,3.95047 -9.66345,8.49545 -11.2164,10.09995 l -2.82353,2.91728 h -28.42647 c -15.63455,0 -28.42451,-0.24107 -28.42213,-0.53571 z"
       id="path4531"
       inkscape:connector-curvature="0"
       transform="scale(0.26458333)"
       inkscape:export-filename="H:\Downloads\playing_at_learning.png"
       inkscape:export-xdpi="150.01511"
       inkscape:export-ydpi="150.01511" />
    <path
       style="fill:#59978e;fill-opacity:1;stroke-width:0.02699663;stroke-miterlimit:4;stroke-dasharray:none"
       d="m 137.27007,332.08806 c 0,-1.22997 12.89302,-15.97588 22.81644,-26.09547 15.96151,-16.27703 31.03255,-28.79387 49.32642,-40.96669 34.57382,-23.00559 75.14217,-39.70888 120.33026,-49.54382 l 10.29101,-2.23979 10.75197,7.29174 c 7.08849,4.80726 10.57244,7.58116 10.22508,8.14116 -0.2898,0.46718 -4.33399,5.85996 -8.9871,11.98396 l -8.4602,11.13455 -9.38133,2.67101 c -42.45999,12.089 -79.65127,29.83735 -111.18212,53.05812 -5.56922,4.10143 -24.06599,19.9815 -27.10494,23.27046 l -1.73165,1.87411 h -28.44692 c -15.64581,0 -28.44692,-0.26071 -28.44692,-0.57934 z"
       id="path4533"
       inkscape:connector-curvature="0"
       transform="scale(0.26458333)"
       inkscape:export-filename="H:\Downloads\playing_at_learning.png"
       inkscape:export-xdpi="150.01511"
       inkscape:export-ydpi="150.01511" />
    <path
       style="fill:#59978e;fill-opacity:1;stroke-width:0.02699663;stroke-miterlimit:4;stroke-dasharray:none"
       d="m 63.216687,538.56026 c 0.700938,-16.43937 3.900334,-40.21582 8.049664,-59.82143 4.23594,-20.01484 13.30949,-49.64015 20.783081,-67.85714 8.675758,-21.14731 24.951308,-50.85064 37.474948,-68.39286 l 6.50172,-9.10714 h 28.20945 c 26.74666,0 28.16088,0.0648 27.27305,1.25 -0.51502,0.6875 -3.23978,3.66071 -6.05504,6.60714 -45.11458,47.21665 -75.40941,116.31535 -82.05409,187.15509 -0.60738,6.47541 -1.15809,13.78241 -1.22379,16.23777 -0.0657,2.45535 -0.33743,4.46428 -0.60386,4.46428 -0.26643,0 -4.421939,-3.375 -9.234464,-7.5 -4.812524,-4.125 -8.966067,-7.4996 -9.230095,-7.49913 -0.264027,4.8e-4 -2.818372,1.91213 -5.676322,4.24809 -6.995458,5.71779 -13.646138,10.75104 -14.205862,10.75104 -0.251686,0 -0.255461,-4.74107 -0.0084,-10.53571 z"
       id="path4535"
       inkscape:connector-curvature="0"
       transform="scale(0.26458333)"
       inkscape:export-filename="H:\Downloads\playing_at_learning.png"
       inkscape:export-xdpi="150.01511"
       inkscape:export-ydpi="150.01511" />
    <path
       style="fill:#59978e;fill-opacity:1;stroke-width:0.02699663;stroke-miterlimit:4;stroke-dasharray:none"
       d="m 63.195335,537.84597 c 1.193951,-31.65423 9.685984,-73.77532 21.888503,-108.56855 11.348416,-32.3579 27.343152,-63.24212 46.611892,-90.00288 l 4.24308,-5.89285 h 28.16563 c 15.49109,0 28.16563,0.20177 28.16563,0.44839 0,0.24661 -2.97396,3.54683 -6.6088,7.33382 -46.83068,48.79089 -77.78386,121.76249 -82.82286,195.2535 -0.47812,6.97322 -1.10262,12.67857 -1.38776,12.67857 -0.28514,0 -3.037917,-2.16964 -6.117282,-4.82143 -3.079365,-2.65178 -7.111693,-6.06063 -8.960729,-7.57522 l -3.361885,-2.7538 -9.477485,7.57264 c -5.212618,4.16495 -9.766562,7.5738 -10.119877,7.57523 -0.371136,10e-4 -0.463213,-4.74782 -0.218057,-11.24742 z"
       id="path4537"
       inkscape:connector-curvature="0"
       transform="scale(0.26458333)"
       inkscape:export-filename="H:\Downloads\playing_at_learning.png"
       inkscape:export-xdpi="150.01511"
       inkscape:export-ydpi="150.01511" />
    <path
       style="fill:#59978e;fill-opacity:1;stroke-width:0.02699663;stroke-miterlimit:4;stroke-dasharray:none"
       d="m 62.984951,542.13169 c 0.0022,-25.53691 7.946598,-69.28242 18.672867,-102.82127 10.848284,-33.92035 28.611122,-70.00426 47.678662,-96.85569 l 6.18927,-8.7159 28.37215,-0.18677 c 15.6047,-0.10272 28.37217,0.012 28.37217,0.25498 0,0.24297 -3.10072,3.70201 -6.89049,7.68677 -46.85804,49.26899 -77.18756,121.06453 -82.49496,195.28073 -0.48462,6.77679 -1.13643,12.32143 -1.44847,12.32143 -0.47665,0 -3.545436,-2.52395 -17.132146,-14.0905 -1.049181,-0.89318 -2.239745,-0.16609 -10.713533,6.54283 -5.24325,4.15122 -9.774593,7.54767 -10.06965,7.54767 -0.295057,0 -0.536198,-3.13393 -0.53587,-6.96428 z"
       id="path4539"
       inkscape:connector-curvature="0"
       transform="scale(0.26458333)"
       inkscape:export-filename="H:\Downloads\playing_at_learning.png"
       inkscape:export-xdpi="150.01511"
       inkscape:export-ydpi="150.01511" />
    <path
       style="fill:#59978e;fill-opacity:1;stroke-width:0.02699663;stroke-miterlimit:4;stroke-dasharray:none"
       d="m 137.27007,332.07582 c 0,-2.44017 26.53757,-30.74775 39.46622,-42.09855 42.29789,-37.1357 95.12099,-62.48154 157.4773,-75.56152 l 5.87209,-1.23174 9.12791,6.19935 c 5.02035,3.40964 9.8693,6.76385 10.77544,7.45381 l 1.64755,1.25446 -8.66443,11.39503 c -4.76543,6.26726 -8.88182,11.61812 -9.14754,11.89079 -0.26571,0.27267 -5.46526,1.94592 -11.55454,3.71834 -41.93637,12.20646 -80.51732,30.80531 -109.64286,52.8559 -6.30163,4.77088 -24.00221,19.89841 -26.73165,22.84579 l -1.73165,1.86992 h -28.44692 c -15.64581,0 -28.44692,-0.26621 -28.44692,-0.59158 z"
       id="path4541"
       inkscape:connector-curvature="0"
       transform="scale(0.26458333)"
       inkscape:export-filename="H:\Downloads\playing_at_learning.png"
       inkscape:export-xdpi="150.01511"
       inkscape:export-ydpi="150.01511" />
    <path
       style="fill:#59978e;fill-opacity:1;stroke-width:0.02699663;stroke-miterlimit:4;stroke-dasharray:none"
       d="m 137.27007,332.07582 c 0,-2.62647 27.54003,-31.80215 41.07143,-43.51073 41.1272,-35.58695 90.9774,-59.69412 151.22143,-73.12951 l 10.50713,-2.34326 10.45154,7.10897 c 5.74835,3.90993 10.58118,7.31698 10.73961,7.57121 0.24375,0.39114 -14.68466,20.68674 -17.10697,23.25743 -0.44701,0.47439 -6.77068,2.61909 -14.05261,4.766 -37.96257,11.1924 -73.53665,28.00559 -101.98761,48.20186 -7.79796,5.53549 -17.88075,13.81342 -28.09857,23.06882 l -6.18319,5.60079 h -28.28109 c -15.55461,0 -28.2811,-0.26621 -28.2811,-0.59158 z"
       id="path4543"
       inkscape:connector-curvature="0"
       transform="scale(0.26458333)"
       inkscape:export-filename="H:\Downloads\playing_at_learning.png"
       inkscape:export-xdpi="150.01511"
       inkscape:export-ydpi="150.01511" />
    <path
       style="fill:#59978e;fill-opacity:1;stroke-width:0.02699663;stroke-miterlimit:4;stroke-dasharray:none"
       d="m 137.27007,331.97739 c 0,-2.46726 26.56318,-30.67238 40.2104,-42.69591 35.00321,-30.83867 79.86001,-54.37953 130.86103,-68.6759 8.55503,-2.39811 29.30935,-7.21004 31.13443,-7.21858 1.00711,-0.005 18.87855,11.68699 21.21211,13.87721 0.73616,0.69094 -0.85711,3.21158 -8.04476,12.72719 l -8.96274,11.86561 -4.09809,1.14584 c -45.89827,12.83334 -87.41157,32.53157 -118.19255,56.08285 -3.43052,2.62477 -11.06941,9.00442 -16.97532,14.17701 l -10.73802,9.40469 h -28.20325 c -17.66456,0 -28.20324,-0.25783 -28.20324,-0.69001 z"
       id="path4545"
       inkscape:connector-curvature="0"
       transform="scale(0.26458333)"
       inkscape:export-filename="H:\Downloads\playing_at_learning.png"
       inkscape:export-xdpi="150.01511"
       inkscape:export-ydpi="150.01511" />
    <path
       style="fill:#59978e;fill-opacity:1;stroke-width:0.02699663;stroke-miterlimit:4;stroke-dasharray:none"
       d="m 137.27007,331.98023 c 0,-3.28678 35.20848,-39.22701 49.86326,-50.89959 36.86223,-29.36089 81.60928,-50.86154 131.20817,-63.04463 7.07143,-1.73697 14.86435,-3.55873 17.3176,-4.04835 l 4.46047,-0.89022 10.37184,7.01365 c 5.70451,3.8575 10.52077,7.25462 10.7028,7.54914 0.18202,0.29453 -3.65552,5.84217 -8.52788,12.32809 l -8.85883,11.79259 -5.233,1.54854 c -42.78022,12.65948 -72.99867,26.04973 -102.37586,45.36428 -11.21199,7.37152 -20.80139,14.84298 -33.68626,26.24621 l -8.73151,7.72746 h -28.2554 c -17.61749,0 -28.2554,-0.25871 -28.2554,-0.68717 z"
       id="path4547"
       inkscape:connector-curvature="0"
       transform="scale(0.26458333)"
       inkscape:export-filename="H:\Downloads\playing_at_learning.png"
       inkscape:export-xdpi="150.01511"
       inkscape:export-ydpi="150.01511" />
    <path
       style="fill:#59978e;fill-opacity:1;stroke-width:0.02699663;stroke-miterlimit:4;stroke-dasharray:none"
       d="m 137.27007,332.04944 c 0,-1.88546 14.36154,-17.88516 28.30637,-31.53515 35.15018,-34.40699 76.20834,-58.69598 127.19033,-75.24264 11.26348,-3.65567 31.98319,-9.10686 42.8808,-11.28161 l 4.44893,-0.88783 10.34704,6.95246 c 5.69086,3.82386 10.52176,7.23519 10.73533,7.58074 0.55328,0.89523 -16.64087,23.58537 -18.46529,24.3676 -0.83321,0.35725 -6.81878,2.24082 -13.30124,4.1857 -29.88565,8.96637 -58.42181,21.35535 -82.50411,35.81919 -16.20075,9.73018 -27.03716,17.78825 -44.35241,32.98093 l -8.75134,7.67857 h -28.26721 c -15.54696,0 -28.2672,-0.27808 -28.2672,-0.61796 z"
       id="path4549"
       inkscape:connector-curvature="0"
       transform="scale(0.26458333)"
       inkscape:export-filename="H:\Downloads\playing_at_learning.png"
       inkscape:export-xdpi="150.01511"
       inkscape:export-ydpi="150.01511" />
    <path
       style="fill:#59978e;fill-opacity:1;stroke-width:0.02699663;stroke-miterlimit:4;stroke-dasharray:none"
       d="m 150.7105,332.84667 c 7.98152,-0.11503 20.83866,-0.11487 28.57143,3.5e-4 7.73276,0.11523 1.20242,0.20935 -14.51186,0.20916 -15.71429,-1.9e-4 -22.04109,-0.0945 -14.05957,-0.20951 z"
       id="path4551"
       inkscape:connector-curvature="0"
       transform="scale(0.26458333)"
       inkscape:export-filename="H:\Downloads\playing_at_learning.png"
       inkscape:export-xdpi="150.01511"
       inkscape:export-ydpi="150.01511" />
    <path
       style="fill:#59978e;fill-opacity:1;stroke-width:0.02699663;stroke-miterlimit:4;stroke-dasharray:none"
       d="m 150.7105,332.84667 c 7.98152,-0.11503 20.83866,-0.11487 28.57143,3.5e-4 7.73276,0.11523 1.20242,0.20935 -14.51186,0.20916 -15.71429,-1.9e-4 -22.04109,-0.0945 -14.05957,-0.20951 z"
       id="path4553"
       inkscape:connector-curvature="0"
       transform="scale(0.26458333)"
       inkscape:export-filename="H:\Downloads\playing_at_learning.png"
       inkscape:export-xdpi="150.01511"
       inkscape:export-ydpi="150.01511" />
    <path
       style="fill:#59978e;fill-opacity:1;stroke-width:0.02699663;stroke-miterlimit:4;stroke-dasharray:none"
       d="m 141.767,332.85017 c 3.0626,-0.13422 7.88403,-0.1334 10.71429,0.002 2.83026,0.13522 0.32449,0.24504 -5.56836,0.24404 -5.89286,-10e-4 -8.20853,-0.11164 -5.14593,-0.24585 z"
       id="path4555"
       inkscape:connector-curvature="0"
       transform="scale(0.26458333)"
       inkscape:export-filename="H:\Downloads\playing_at_learning.png"
       inkscape:export-xdpi="150.01511"
       inkscape:export-ydpi="150.01511" />
    <path
       style="fill:#59978e;fill-opacity:1;stroke-width:0.02699663;stroke-miterlimit:4;stroke-dasharray:none"
       d="m 62.984354,541.21852 c 0,-25.2629 7.995758,-68.87525 18.722842,-102.12255 11.916503,-36.93375 30.161684,-73.27506 50.832644,-101.25 l 3.2987,-4.46428 4.82291,-0.13506 4.8229,-0.13506 -4.10714,-0.25773 c -2.25893,-0.14175 -4.10714,-0.54405 -4.10714,-0.894 0,-3.2872 35.19164,-39.20577 50,-51.03281 9.87152,-7.88412 29.43631,-21.20258 39.64286,-26.98634 9.18843,-5.20681 26.53222,-13.71407 36.86075,-18.08047 13.8215,-5.84306 38.7429,-13.9762 55.58736,-18.14101 22.24239,-5.49947 19.49041,-5.68488 30.82262,2.07664 5.27252,3.61119 10.01771,6.98095 10.54486,7.48835 0.79479,0.76503 -0.54684,2.91519 -7.85714,12.59215 -7.11776,9.4221 -9.29708,11.83527 -11.3156,12.52984 -1.375,0.47314 -9.25,3.00471 -17.5,5.6257 -19.15497,6.08548 -35.22158,12.42169 -51.42857,20.28198 -27.7264,13.44712 -45.07311,24.94011 -68.56126,45.42496 l -9.82808,8.57143 -7.2339,0.39589 -7.2339,0.3959 6.25,0.13982 c 3.4375,0.0769 6.25,0.33376 6.25,0.5708 0,0.23704 -2.93787,3.53168 -6.52859,7.32142 -47.49077,50.12303 -77.34079,120.74559 -82.84227,195.9976 -0.48108,6.58035 -1.11573,11.96428 -1.41034,11.96428 -0.29461,0 -4.337576,-3.2116 -8.98437,-7.13688 -4.646794,-3.92529 -8.876551,-7.13957 -9.399459,-7.14286 -0.522908,-0.003 -5.011393,3.20831 -9.974412,7.13689 -4.963018,3.92857 -9.276256,7.14285 -9.584972,7.14285 -0.308717,0 -0.561303,-3.54485 -0.561303,-7.87745 z"
       id="path4557"
       inkscape:connector-curvature="0"
       transform="scale(0.26458333)"
       inkscape:export-filename="H:\Downloads\playing_at_learning.png"
       inkscape:export-xdpi="150.01511"
       inkscape:export-ydpi="150.01511" />
    <path
       style="fill:#59978e;fill-opacity:1;stroke-width:0.02699663;stroke-miterlimit:4;stroke-dasharray:none"
       d="m 62.992001,541.06026 c 0.01296,-13.62047 2.619402,-34.93995 6.87514,-56.23549 10.951287,-54.79977 33.123019,-107.00766 62.063289,-146.14073 3.5989,-4.86643 4.14107,-5.31115 6.59475,-5.40937 2.15481,-0.0863 2.29239,-0.16475 0.70917,-0.40459 -1.08035,-0.16366 -1.96428,-0.57858 -1.96428,-0.92204 0,-2.56804 26.45871,-30.61598 40.71428,-43.15977 30.93872,-27.22364 67.42644,-47.66072 111.07143,-62.21203 15.22858,-5.07724 40.69877,-11.90786 48.02735,-12.88003 l 3.5934,-0.47668 10.06251,6.90267 c 5.53437,3.79648 10.24039,7.19051 10.45781,7.54231 0.4812,0.77859 -16.33172,23.29236 -18.05742,24.18026 -0.67458,0.34708 -6.67345,2.3001 -13.33082,4.34005 -53.50637,16.39541 -90.49805,36.56258 -128.82425,70.23258 l -7.11431,6.25 -4.19285,0.12875 c -4.05796,0.12461 -4.0837,0.13736 -0.79999,0.39628 3.22484,0.25428 4.24511,1.0068 2.67809,1.97527 -1.38368,0.85516 -15.4198,16.56142 -20.76977,23.24114 -39.46437,49.27333 -63.90293,114.82914 -68.22379,183.00856 -0.26764,4.22322 -0.76357,7.67857 -1.10205,7.67857 -0.33847,0 -4.426968,-3.21428 -9.085535,-7.14285 -4.658567,-3.92858 -8.797642,-7.14286 -9.197945,-7.14286 -0.400302,0 -4.866159,3.21197 -9.924125,7.13771 -5.057966,3.92575 -9.437374,7.14003 -9.732016,7.14286 -0.294643,0.003 -0.532274,-3.61093 -0.528068,-8.03057 z"
       id="path4559"
       inkscape:connector-curvature="0"
       transform="scale(0.26458333)"
       inkscape:export-filename="H:\Downloads\playing_at_learning.png"
       inkscape:export-xdpi="150.01511"
       inkscape:export-ydpi="150.01511" />
    <path
       style="fill:#59978e;fill-opacity:1;stroke-width:0.02699663;stroke-miterlimit:4;stroke-dasharray:none"
       d="m 62.992001,540.70312 c 0.01295,-14.21445 2.951754,-37.38079 7.543432,-59.46429 9.894763,-47.58848 27.785784,-91.82956 52.274037,-129.26373 9.20326,-14.06863 12.75489,-18.58042 14.68092,-18.64981 0.86096,-0.031 1.16361,-0.21851 0.67254,-0.41666 -0.49108,-0.19815 -0.89286,-0.75642 -0.89286,-1.2406 0,-2.41033 28.50893,-32.35314 41.81323,-43.91625 34.89461,-30.32782 78.94467,-53.23691 129.2582,-67.22323 11.07887,-3.07974 28.60867,-7.14686 30.80387,-7.14686 1.14722,0 5.27536,2.33601 10.87955,6.15648 13.50901,9.20931 13.15677,6.68806 2.8435,20.35335 -8.33954,11.05005 -9.01899,11.75753 -12.38946,12.90021 -1.96132,0.66494 -10.15532,3.32098 -18.20889,5.90231 -48.20014,15.44911 -83.36932,34.90514 -118.95704,65.80853 -6.88045,5.9748 -9.6093,7.90965 -11.62421,8.24204 -1.48163,0.24441 -1.93024,0.47868 -1.02589,0.53571 0.88392,0.0557 1.60714,0.27786 1.60714,0.49357 0,0.21572 -3.59466,4.31064 -7.98814,9.09983 -18.67843,20.36078 -32.37593,39.99157 -44.99193,64.48095 -21.20611,41.16395 -33.45681,86.01999 -36.71161,134.41987 -0.27079,4.02679 -0.79572,7.32143 -1.1665,7.32143 -0.37079,0 -3.885487,-2.73809 -7.810451,-6.08465 -11.379446,-9.70252 -9.078563,-9.57133 -20.141535,-1.14835 -5.225016,3.97815 -9.719522,7.233 -9.98779,7.233 -0.268268,0 -0.484319,-3.77678 -0.480113,-8.39285 z"
       id="path4561"
       inkscape:connector-curvature="0"
       transform="scale(0.26458333)"
       inkscape:export-filename="H:\Downloads\playing_at_learning.png"
       inkscape:export-xdpi="150.01511"
       inkscape:export-ydpi="150.01511" />
    <path
       style="fill:#59978e;fill-opacity:1;stroke-width:0.02699663;stroke-miterlimit:4;stroke-dasharray:none"
       d="m 62.984354,540.86137 c 0,-9.27083 1.463372,-24.71798 3.652103,-38.55111 9.071912,-57.33592 28.771502,-109.36697 58.008803,-153.21429 6.9001,-10.34813 11.09591,-15.71428 12.28699,-15.71428 0.60349,0 0.84186,-0.43105 0.59465,-1.07527 -0.61097,-1.59215 6.1012,-9.48345 21.17174,-24.891 18.69454,-19.11257 31.71439,-30.07514 50.66476,-42.65914 28.87301,-19.17314 63.77497,-34.7372 99.737,-44.47637 12.32206,-3.33704 27.84325,-6.89822 30.06548,-6.89822 1.6617,0 19.79025,11.65685 21.69175,13.94801 0.60032,0.72334 -1.25303,3.63625 -8.01041,12.58991 l -8.79144,11.64883 -22.5,7.53454 c -12.375,4.144 -26.41977,9.20634 -31.2106,11.24966 -34.50647,14.71718 -58.38929,29.53494 -85.93225,53.31543 -5.69643,4.91827 -10.93862,8.95515 -11.6493,8.97082 -0.71069,0.0157 -1.09568,0.34641 -0.85555,0.73496 0.24014,0.38855 -3.15602,4.64748 -7.54701,9.46429 -25.68774,28.17879 -44.22698,58.1017 -58.75307,94.82926 -12.77508,32.30032 -20.36024,66.72546 -23.01746,104.46429 -0.26969,3.83035 -0.7878,6.96428 -1.15134,6.96428 -0.36354,0 -4.304343,-3.05357 -8.757342,-6.78571 -4.452999,-3.73214 -8.747968,-6.78572 -9.544375,-6.78572 -0.796408,0 -5.398829,3.05358 -10.227604,6.78572 -4.828774,3.73214 -9.037425,6.78571 -9.352557,6.78571 -0.315132,0 -0.572968,-3.70557 -0.572968,-8.2346 z"
       id="path4563"
       inkscape:connector-curvature="0"
       transform="scale(0.26458333)"
       inkscape:export-filename="H:\Downloads\playing_at_learning.png"
       inkscape:export-xdpi="150.01511"
       inkscape:export-ydpi="150.01511" />
    <path
       style="fill:#59978e;fill-opacity:1;stroke-width:0.02699663;stroke-miterlimit:4;stroke-dasharray:none"
       d="m 63.208607,536.06026 c 0.252607,-7.53818 1.179327,-18.30732 2.197432,-25.53572 8.539495,-60.62913 28.419805,-115.11219 58.512681,-160.35714 6.80542,-10.23202 11.75565,-16.78571 12.67881,-16.78571 0.3699,0 0.67254,-0.52672 0.67254,-1.17049 0,-0.64377 1.84398,-3.45627 4.09773,-6.25 6.21277,-7.7013 35.2694,-36.54736 43.75941,-43.44228 33.69023,-27.36059 74.0161,-47.96096 119.22483,-60.90569 13.87234,-3.9721 31.73916,-8.22499 34.57014,-8.22882 1.35191,-0.002 5.11893,2.09839 11.51458,6.41971 5.22794,3.53234 9.86744,6.85873 10.30999,7.39197 0.83448,1.00549 -2.77689,6.47797 -12.56658,19.04274 l -4.17395,5.35714 -21.40379,7.17528 c -22.7731,7.63431 -30.9036,10.7666 -45.61882,17.57476 -26.36889,12.19984 -48.91503,26.93136 -72.92783,47.65062 -5.5,4.74564 -10.40178,8.63796 -10.89285,8.6496 -0.49108,0.0116 -0.89286,0.35741 -0.89286,0.76839 0,0.41096 -3.68439,4.8306 -8.18753,9.82142 -18.69291,20.71731 -31.8138,39.42822 -44.18026,63.00279 -17.2457,32.87604 -29.62931,72.18493 -34.76618,110.35714 -0.805,5.982 -2.85626,28.12016 -2.86245,30.89286 -0.002,0.88393 -0.32084,1.60714 -0.7086,1.60714 -0.38776,0 -4.418069,-3.05357 -8.956244,-6.78571 -4.538174,-3.73214 -8.801272,-6.78287 -9.473553,-6.77938 -0.67228,0.004 -5.216066,3.05705 -10.097302,6.78571 -4.881236,3.72866 -9.187994,6.77938 -9.570575,6.77938 -0.441824,0 -0.536231,-4.75583 -0.258769,-13.03571 z"
       id="path4565"
       inkscape:connector-curvature="0"
       transform="scale(0.26458333)"
       inkscape:export-filename="H:\Downloads\playing_at_learning.png"
       inkscape:export-xdpi="150.01511"
       inkscape:export-ydpi="150.01511" />
    <path
       style="fill:#59978e;fill-opacity:1;stroke-width:0.02699663;stroke-miterlimit:4;stroke-dasharray:none"
       d="m 62.984354,540.67664 c 0,-26.29172 8.110664,-69.90925 19.298781,-103.78497 11.604266,-35.13575 27.806405,-67.7004 47.356685,-95.1821 2.75031,-3.86609 5.59224,-7.39877 6.31541,-7.85039 0.72316,-0.45162 1.31484,-1.27076 1.31484,-1.82032 0,-2.92357 29.17491,-33.61195 43.61902,-45.88179 33.9335,-28.82548 74.02437,-49.9852 120.83644,-63.77674 14.21584,-4.18819 34.1262,-8.99864 37.24525,-8.99864 1.28785,0 5.22236,2.20383 11.46598,6.42243 5.22794,3.53234 9.87084,6.86283 10.31755,7.40108 0.87815,1.05811 -3.11958,7.14678 -12.31958,18.76313 l -4.59426,5.80093 -18.82092,6.22007 c -23.79692,7.86458 -37.6002,13.33202 -53.78387,21.30364 -25.60979,12.61467 -43.78704,24.74472 -67.53704,45.06885 -5.30357,4.53854 -10.04464,8.26397 -10.53571,8.27874 -0.49108,0.0148 -0.89286,0.37618 -0.89286,0.80314 0,0.42697 -3.10363,4.20376 -6.89695,8.39286 -3.79332,4.18911 -9.74152,11.09484 -13.21821,15.34608 -34.44983,42.12461 -58.1514,98.0786 -66.61825,157.27048 -1.06971,7.4783 -3.25754,29.62397 -3.26369,33.03571 -0.002,0.88393 -0.36543,1.60714 -0.80852,1.60714 -0.44309,0 -3.416306,-2.18489 -6.607144,-4.85531 -10.167759,-8.50942 -10.983443,-9.02526 -12.894597,-8.15448 -0.92779,0.42273 -5.130871,3.38588 -9.340182,6.58478 -4.20931,3.1989 -8.09989,5.98756 -8.645732,6.19702 -0.813089,0.31201 -0.992441,-1.16831 -0.992441,-8.19134 z"
       id="path4567"
       inkscape:connector-curvature="0"
       transform="scale(0.26458333)"
       inkscape:export-filename="H:\Downloads\playing_at_learning.png"
       inkscape:export-xdpi="150.01511"
       inkscape:export-ydpi="150.01511" />
    <path
       style="fill:#59978e;fill-opacity:1;stroke-width:0.02699663;stroke-miterlimit:4;stroke-dasharray:none"
       d="m 63.209162,536.06026 c 1.20303,-35.85471 11.935772,-83.5329 27.629756,-122.74002 5.859967,-14.63952 16.983432,-37.15329 24.673342,-49.93855 6.95713,-11.56695 15.87893,-24.73046 19.42347,-28.658 1.28389,-1.42262 2.33434,-2.8335 2.33434,-3.1353 0,-2.51684 31.23138,-35.02198 44.30731,-46.11437 31.51947,-26.73814 72.58923,-48.7263 115.33555,-61.749 11.94316,-3.63849 35.23625,-9.51841 39.8593,-10.06176 l 3.85138,-0.45265 9.57863,6.41083 c 5.26824,3.52596 9.98324,6.89836 10.47775,7.49422 0.96394,1.16147 -1.31859,4.70837 -11.89828,18.48921 l -4.72593,6.15587 -17.85714,5.89376 c -53.17164,17.54933 -84.06185,34.19234 -120,64.65354 -5.10714,4.32881 -10.1378,8.53212 -11.17924,9.34068 -3.06789,2.38187 -20.91456,22.83561 -27.68822,31.73297 -13.7965,18.12201 -23.9144,34.92396 -33.76543,56.07143 -17.52916,37.63033 -27.46203,77.22922 -30.95149,123.39285 -0.25984,3.4375 -0.78702,6.25 -1.17152,6.25 -0.38449,0 -3.971708,-2.68383 -7.971589,-5.96408 -8.621687,-7.07052 -10.029355,-7.90716 -11.736797,-6.9757 -0.6875,0.37505 -4.921322,3.43994 -9.408493,6.81085 -4.487172,3.37091 -8.472502,6.12893 -8.85629,6.12893 -0.44469,0 -0.539146,-4.72832 -0.260409,-13.03571 z"
       id="path4569"
       inkscape:connector-curvature="0"
       transform="scale(0.26458333)"
       inkscape:export-filename="H:\Downloads\playing_at_learning.png"
       inkscape:export-xdpi="150.01511"
       inkscape:export-ydpi="150.01511" />
    <path
       style="fill:#59978e;fill-opacity:1;stroke-width:0.02699663;stroke-miterlimit:4;stroke-dasharray:none"
       d="m 62.984354,540.3195 c 0,-24.09538 6.837815,-63.13488 16.789755,-95.85862 10.978984,-36.10084 29.720301,-74.87159 49.139671,-101.65679 3.22096,-4.44269 6.85626,-9.5136 8.07844,-11.26869 6.85279,-9.84081 36.3005,-39.64987 49.92071,-50.53327 29.96504,-23.94394 66.57627,-43.34071 105.35714,-55.81863 12.37227,-3.98083 38.98587,-10.87191 44.48285,-11.51797 l 3.91663,-0.46032 8.83598,5.88983 c 4.85978,3.2394 9.55934,6.54957 10.44346,7.35593 1.95466,1.78275 2.35629,1.04205 -8.25457,15.22339 l -7.54092,10.07839 -19.69172,6.5626 c -54.5406,18.17661 -83.00482,33.92841 -123.04395,68.09121 -14.46963,12.34601 -31.9889,32.78236 -45.16853,52.68941 -8.4277,12.72956 -11.95572,18.81002 -18.4428,31.78572 -20.32524,40.65536 -31.03707,80.9144 -35.2071,132.32143 -0.26291,3.24107 -0.80086,5.89285 -1.19544,5.89285 -0.39458,0 -3.173621,-2.03049 -6.175653,-4.5122 -6.421968,-5.30889 -11.517147,-9.05923 -12.307798,-9.05923 -0.310084,0 -4.472405,2.91522 -9.249603,6.47826 -4.777196,3.56304 -9.135978,6.651 -9.686182,6.86214 -0.824759,0.31648 -1.00037,-1.18363 -1.00037,-8.54544 z"
       id="path4571"
       inkscape:connector-curvature="0"
       transform="scale(0.26458333)"
       inkscape:export-filename="H:\Downloads\playing_at_learning.png"
       inkscape:export-xdpi="150.01511"
       inkscape:export-ydpi="150.01511" />
    <path
       style="fill:#59978e;fill-opacity:1;stroke-width:0.02699663;stroke-miterlimit:4;stroke-dasharray:none"
       d="m 62.992001,539.98883 c 0.0089,-10.56924 1.369327,-24.43493 3.936952,-40.12528 10.122703,-61.85826 32.541176,-117.10658 66.196227,-163.13468 3.21321,-4.39452 7.61789,-10.07933 9.78817,-12.6329 6.30688,-7.42071 29.06193,-30.29303 36.88424,-37.07433 30.93273,-26.81608 70.07931,-48.2504 113.54391,-62.16981 13.47899,-4.31661 41.72148,-11.47014 45.28467,-11.47014 1.94692,0 4.48081,1.33994 11.57278,6.11978 4.99405,3.36588 9.59145,6.68484 10.21648,7.37548 1.0528,1.16334 0.86071,1.64674 -2.61163,6.57194 -2.06141,2.92393 -5.95749,8.23802 -8.65795,11.8091 l -4.90994,6.49287 -18.54039,6.17267 c -54.72852,18.22081 -83.36635,33.88953 -122.35402,66.94396 -13.21217,11.2015 -26.61017,25.92145 -39.60635,43.5142 -25.925,35.09429 -45.30587,79.98963 -54.686,126.6788 -2.74473,13.6618 -6.74998,45.07318 -6.77618,53.14263 -0.006,1.72085 -1.57484,0.84706 -8.439105,-4.69906 -10.952918,-8.84964 -10.151426,-8.52477 -14.206756,-5.75834 -1.885658,1.28635 -6.129272,4.36639 -9.430253,6.84453 -3.300981,2.47815 -6.274196,4.50572 -6.607143,4.50572 -0.332947,0 -0.601918,-4.09821 -0.597712,-9.10714 z"
       id="path4573"
       inkscape:connector-curvature="0"
       transform="scale(0.26458333)"
       inkscape:export-filename="H:\Downloads\playing_at_learning.png"
       inkscape:export-xdpi="150.01511"
       inkscape:export-ydpi="150.01511" />
    <path
       style="fill:#59978e;fill-opacity:1;stroke-width:0.02699663;stroke-miterlimit:4;stroke-dasharray:none"
       d="m 62.984354,540.22351 c 0,-26.07837 7.548652,-67.17844 18.693856,-101.78227 12.38605,-38.45642 30.46281,-73.61214 54.2018,-105.41174 8.69237,-11.64386 33.2254,-37.10874 46.39006,-48.1521 31.15383,-26.13381 67.71534,-45.98523 109.80881,-59.62175 13.94077,-4.51623 42.78413,-11.87396 46.5476,-11.87396 1.94198,0 4.48614,1.33741 11.51027,6.0507 12.47869,8.37338 12.07838,7.76316 8.4858,12.93582 -1.61497,2.32527 -5.54894,7.67565 -8.74215,11.88973 l -5.80582,7.66197 -17.5094,5.80502 c -53.59127,17.76753 -82.2565,33.12246 -119.31698,63.91381 -28.37692,23.5767 -54.39185,57.72272 -71.87356,94.33797 -14.65658,30.69805 -24.54781,63.62253 -29.47715,98.11926 -1.26195,8.83142 -3.62742,31.03137 -3.62742,34.0433 0,1.82772 -1.58038,0.92128 -9.518159,-5.45922 -4.390013,-3.52876 -8.667855,-6.42161 -9.506314,-6.42857 -0.838459,-0.007 -5.306917,2.74831 -9.929906,6.12282 -4.622989,3.37452 -8.838762,6.30176 -9.368385,6.50499 -0.776435,0.29795 -0.962952,-1.37862 -0.962952,-8.65578 z"
       id="path4575"
       inkscape:connector-curvature="0"
       transform="scale(0.26458333)"
       inkscape:export-filename="H:\Downloads\playing_at_learning.png"
       inkscape:export-xdpi="150.01511"
       inkscape:export-ydpi="150.01511" />
    <path
       style="fill:#59978e;fill-opacity:1;stroke-width:0.02699663;stroke-miterlimit:4;stroke-dasharray:none"
       d="m 62.984354,539.88594 c 0,-19.8347 4.338465,-48.40254 11.781059,-77.57568 10.126463,-39.69325 26.746057,-78.04057 47.828387,-110.35714 12.67508,-19.4293 19.63627,-27.86868 38.93525,-47.20305 19.99383,-20.03049 27.84043,-26.64197 46.09816,-38.84192 27.43484,-18.33216 52.3719,-30.28931 85.46747,-40.98107 13.30714,-4.29896 41.78497,-11.54539 45.37238,-11.54539 1.92159,0 4.29437,1.14667 9.77733,4.72499 3.98198,2.59875 8.60589,5.83444 10.27536,7.19042 3.692,2.99873 4.10257,1.97058 -6.41722,16.07014 l -7.82334,10.48556 -19.04028,6.38899 c -51.46439,17.26895 -77.38636,30.8543 -112.6117,59.01828 -21.97125,17.56684 -42.19378,40.10183 -58.37498,65.05019 -25.06389,38.64378 -42.06101,85.61608 -48.72107,134.64286 -0.92234,6.78962 -3.26109,29.41147 -3.26109,31.54329 0,1.43742 -2.05874,0.26582 -8.143589,-4.6344 -7.994292,-6.43794 -9.730749,-7.62631 -11.122488,-7.61184 -0.600087,0.006 -5.108924,2.8991 -10.019639,6.42857 -4.910714,3.52948 -9.169643,6.41723 -9.464285,6.41723 -0.294643,0 -0.535715,-4.14451 -0.535715,-9.21003 z"
       id="path4577"
       inkscape:connector-curvature="0"
       transform="scale(0.26458333)"
       inkscape:export-filename="H:\Downloads\playing_at_learning.png"
       inkscape:export-xdpi="150.01511"
       inkscape:export-ydpi="150.01511" />
    <path
       style="fill:#59978e;fill-opacity:1;stroke-width:0.02699663;stroke-miterlimit:4;stroke-dasharray:none"
       d="m 63.206967,535.34597 c 0.237203,-7.5625 0.932232,-17.44643 1.544507,-21.96428 8.170088,-60.28543 28.298557,-116.38705 58.046426,-161.78572 12.69077,-19.36756 19.39931,-27.48198 38.72951,-46.8459 19.99408,-20.02894 27.8396,-26.63954 46.0998,-38.84347 15.03981,-10.05163 24.38882,-15.412 39.9948,-22.93153 24.7132,-11.90771 49.15906,-20.30178 80.76967,-27.73418 11.68454,-2.74731 11.51675,-2.77791 21.41362,3.90424 11.0736,7.47665 11.92771,8.27805 10.90065,10.22798 -0.43703,0.82972 -4.28293,6.2127 -8.54644,11.96217 l -7.75184,10.4536 -18.30009,6.1764 c -50.85108,17.16258 -79.26421,31.90898 -111.8641,58.05739 -16.4865,13.22384 -27.23742,23.76207 -40.29915,39.50187 -28.41807,34.24468 -49.7177,77.47133 -61.24091,124.28572 -4.78315,19.4321 -7.24864,35.19878 -10.08051,64.46428 -0.2566,2.65179 -0.7776,4.82143 -1.15778,4.82143 -0.38017,0 -4.392125,-2.89285 -8.915446,-6.42857 -4.523322,-3.53571 -8.666368,-6.42857 -9.20677,-6.42857 -1.00286,0 -6.576375,3.64724 -14.601992,9.55536 -2.466833,1.81598 -4.81817,3.30178 -5.225193,3.30178 -0.499839,0 -0.600057,-4.46298 -0.308762,-13.75 z"
       id="path4579"
       inkscape:connector-curvature="0"
       transform="scale(0.26458333)"
       inkscape:export-filename="H:\Downloads\playing_at_learning.png"
       inkscape:export-xdpi="150.01511"
       inkscape:export-ydpi="150.01511" />
    <path
       style="fill:#59978e;fill-opacity:1;stroke-width:0.75590552;stroke-miterlimit:4;stroke-dasharray:none;stroke:#59978e;stroke-opacity:1"
       d="m 62.992001,539.70811 c 0.02248,-28.04819 8.207658,-70.55346 20.612668,-107.04071 12.525884,-36.84278 29.716001,-69.59462 52.465831,-99.96168 7.93233,-10.58828 31.79821,-35.49175 44.68733,-46.63016 31.17588,-26.94133 73.23982,-49.49204 116.92797,-62.68573 13.55035,-4.09217 34.06571,-9.22139 39.05788,-9.76519 l 4.11647,-0.44841 7.3121,4.83944 c 4.02165,2.66169 8.67803,5.94361 10.3475,7.29314 3.69615,2.98785 4.09134,1.99185 -6.36025,16.02992 l -7.78545,10.45704 -16.13474,5.46288 c -43.71581,14.80123 -66.71128,25.44785 -92.04067,42.61367 -18.94103,12.83642 -38.90746,29.59542 -50.92561,42.74487 -32.59458,35.66283 -55.00971,76.1257 -69.33752,125.16524 -6.31364,21.60959 -10.05621,43.11936 -13.30918,76.49211 -0.25848,2.65179 -0.80151,4.82143 -1.20673,4.82143 -0.40522,0 -3.513567,-2.19175 -6.907434,-4.87055 -10.018091,-7.90735 -10.663964,-8.28404 -12.651194,-7.3786 -0.94853,0.43218 -5.090578,3.21016 -9.204551,6.17329 -4.113973,2.96313 -7.973177,5.57678 -8.576009,5.80811 -0.951732,0.36521 -1.095051,-0.8357 -1.088411,-9.12011 z"
       id="path4581"
       inkscape:connector-curvature="0"
       transform="scale(0.26458333)"
       inkscape:export-filename="H:\Downloads\playing_at_learning.png"
       inkscape:export-xdpi="150.01511"
       inkscape:export-ydpi="150.01511" />
    <path
       style="fill:#3a365a;fill-opacity:1;stroke-width:0.02699663;stroke-miterlimit:4;stroke-dasharray:none"
       d="m 82.030671,657.21988 c -3.51428,-10.87075 -6.547481,-22.02087 -8.67276,-31.88127 l -1.810558,-8.40022 7.682786,-11.77916 c 4.781082,-7.3303 8.028255,-11.64926 8.597476,-11.43525 0.503079,0.18915 6.344674,4.73086 12.981325,10.09269 l 12.06663,9.74877 0.48351,3.65813 c 1.13609,8.59539 5.49061,23.82745 10.8042,37.79299 1.77509,4.66542 3.0514,8.65861 2.83624,8.87377 -0.21515,0.21515 -9.8542,0.55612 -21.42009,0.75771 l -21.02891,0.36651 z"
       id="path4583"
       inkscape:connector-curvature="0"
       transform="scale(0.26458333)"
       inkscape:export-filename="H:\Downloads\playing_at_learning.png"
       inkscape:export-xdpi="150.01511"
       inkscape:export-ydpi="150.01511" />
    <path
       style="fill:#3a365a;fill-opacity:1;stroke-width:0.02699663;stroke-miterlimit:4;stroke-dasharray:none"
       d="M 394.41293,892.18221 C 277.0232,883.57749 188.75883,837.37153 129.52596,753.5152 103.56201,716.75789 82.804761,669.22802 72.94465,623.95554 l -1.508478,-6.92614 7.738377,-11.82288 c 4.52812,-6.91817 8.099187,-11.6881 8.608115,-11.498 0.478355,0.17868 6.283515,4.66319 12.900356,9.96557 l 12.03062,9.6407 1.1843,6.68391 c 1.55766,8.79109 5.22736,21.40534 9.78396,33.63147 2.02754,5.44024 3.48362,10.09416 3.23574,10.34204 -0.24788,0.24788 -8.22535,0.55126 -17.7277,0.67417 -23.866147,0.30871 -24.008674,0.66461 -0.31273,0.78089 15.32689,0.0752 19.82226,0.29973 19.82511,0.99013 0.002,0.49107 3.3414,7.64286 7.42083,15.89286 11.88345,24.03238 23.25503,41.95697 39.65079,62.5 8.9543,11.21926 28.68923,31.52268 38.99613,40.11947 28.82442,24.04188 60.12947,41.40216 95.04408,52.70691 27.28485,8.83438 51.70265,13.06914 89.7045,15.55741 l 8.32001,0.54478 -8.11283,8.92857 c -4.46205,4.91072 -8.1257,9.34049 -8.14144,9.84396 -0.0157,0.50346 3.18154,5.24453 7.10504,10.53571 l 7.13365,9.62033 -4.09793,-0.12479 c -2.25387,-0.0686 -5.54437,-0.23082 -7.31222,-0.3604 z"
       id="path4585"
       inkscape:connector-curvature="0"
       transform="scale(0.26458333)"
       inkscape:export-filename="H:\Downloads\playing_at_learning.png"
       inkscape:export-xdpi="150.01511"
       inkscape:export-ydpi="150.01511" />
    <path
       style="fill:#3a365a;fill-opacity:1;stroke-width:0.02699663;stroke-miterlimit:4;stroke-dasharray:none"
       d="m 394.05578,892.18497 c -32.16922,-2.728 -54.37645,-6.28605 -79.36163,-12.71536 C 221.48663,855.485 150.24412,799.27784 105.9886,714.81026 91.436413,687.03545 79.246636,653.32607 72.606052,622.49477 l -1.191027,-5.52977 7.748951,-11.78179 c 4.261922,-6.47998 7.986642,-11.78623 8.277154,-11.79165 0.808574,-0.0151 25.54322,19.97643 25.54322,20.64505 0,0.32259 0.47174,3.28041 1.0483,6.57294 1.35162,7.71865 5.12733,20.54643 9.71645,33.01114 2.00101,5.43502 3.43711,10.08295 3.19134,10.32872 -0.24577,0.24578 -5.01322,0.64708 -10.59433,0.89178 l -10.14747,0.44493 11.07143,0.12357 11.07143,0.12358 3.74615,8.38849 c 2.06039,4.61368 6.4879,13.47901 9.83891,19.70076 51.03009,94.74637 136.57829,150.6158 242.48637,158.3619 6.08928,0.44537 13.85257,1.02231 17.25173,1.28209 l 6.18032,0.47232 -8.19783,9.16756 c -4.90147,5.48127 -8.04453,9.56708 -7.81657,10.16114 0.2097,0.54646 3.4432,5.17999 7.18557,10.29672 l 6.80429,9.30315 -4.45376,-0.12007 c -2.44956,-0.066 -5.73947,-0.22911 -7.3109,-0.36236 z"
       id="path4587"
       inkscape:connector-curvature="0"
       transform="scale(0.26458333)"
       inkscape:export-filename="H:\Downloads\playing_at_learning.png"
       inkscape:export-xdpi="150.01511"
       inkscape:export-ydpi="150.01511" />
    <path
       style="fill:#3a365a;fill-opacity:1;stroke-width:0.02699663;stroke-miterlimit:4;stroke-dasharray:none"
       d="m 394.05578,892.21002 c -1.17857,-0.13383 -6.16071,-0.59183 -11.07143,-1.01776 C 261.8966,880.68956 168.3055,823.85197 112.67318,727.03312 96.142152,698.2636 82.906155,665.08232 74.888284,632.31026 c -4.10031,-16.75951 -4.545243,-13.94955 4.325272,-27.31605 4.234653,-6.38096 7.937062,-11.60418 8.227574,-11.60714 0.290513,-0.003 6.093801,4.45964 12.8962,9.91689 l 12.36799,9.92228 1.53482,7.75629 c 1.94206,9.8143 4.10207,17.23926 9.11811,31.34319 2.19406,6.16917 3.78507,11.42159 3.53557,11.67204 -0.2495,0.25044 -2.59726,0.64586 -5.21726,0.87868 l -4.76363,0.42333 5.75495,0.11239 5.75496,0.11238 3.07014,6.96429 c 1.68859,3.83036 5.44308,11.50239 8.34333,17.04896 41.80302,79.9461 108.14914,133.49303 190.6388,153.86165 19.78452,4.88525 39.77644,7.78273 64.29496,9.31843 7.07143,0.44291 12.915,0.85811 12.98571,0.92265 0.0707,0.0646 -2.46022,3.00593 -5.6243,6.5364 -3.16409,3.53048 -6.87225,7.77964 -8.24035,9.44257 l -2.48745,3.02352 5.01422,6.97648 c 2.75783,3.83707 6.03414,8.34255 7.2807,10.0122 l 2.26648,3.03571 -4.88322,-0.10702 c -2.68577,-0.0589 -5.84751,-0.21652 -7.02608,-0.35036 z"
       id="path4589"
       inkscape:connector-curvature="0"
       transform="scale(0.26458333)"
       inkscape:export-filename="H:\Downloads\playing_at_learning.png"
       inkscape:export-xdpi="150.01511"
       inkscape:export-ydpi="150.01511" />
    <path
       style="fill:#3a365a;fill-opacity:1;stroke-width:0.02699663;stroke-miterlimit:4;stroke-dasharray:none"
       d="m 392.62721,892.17142 c -42.13808,-3.77313 -70.42172,-9.2635 -102.14286,-19.82778 -48.496,-16.15091 -87.64615,-39.6855 -122.4275,-73.59566 C 140.58184,771.96114 120.08238,743.47356 102.25894,707.31026 94.473128,691.51304 87.468139,674.34079 82.154073,658.02454 77.988761,645.23542 71.363412,619.3241 71.743704,617.31026 c 0.341002,-1.80579 14.74277,-23.92857 15.577322,-23.92857 0.340374,0 6.236965,4.48754 13.103534,9.97231 11.5292,9.20912 12.51596,10.17943 12.89346,12.67857 1.12527,7.44946 5.28423,22.65073 9.41088,34.39737 2.53529,7.21677 4.44981,13.2812 4.2545,13.47652 -0.19532,0.19531 -1.41608,0.60638 -2.7128,0.91348 -2.26474,0.53636 -2.22735,0.56125 0.94853,0.63149 3.03827,0.0672 3.38071,0.26124 4.22566,2.39454 1.54839,3.9093 13.23421,27.20955 16.80994,33.51719 5.9188,10.44083 20.64325,32.0723 28.35872,41.66138 53.07947,65.96918 124.51413,102.73818 211.70019,108.96681 6.22246,0.44454 13.63899,1.01957 16.48116,1.27787 l 5.1676,0.46961 -5.76584,6.42857 c -3.17121,3.53572 -6.9006,7.79364 -8.28752,9.46204 l -2.52168,3.03348 5.55595,7.68081 c 3.05578,4.22445 6.34611,8.72546 7.31185,10.00224 l 1.75589,2.32143 -5.26335,-0.12007 c -2.89484,-0.066 -6.54906,-0.2352 -8.12049,-0.37591 z"
       id="path4591"
       inkscape:connector-curvature="0"
       transform="scale(0.26458333)"
       inkscape:export-filename="H:\Downloads\playing_at_learning.png"
       inkscape:export-xdpi="150.01511"
       inkscape:export-ydpi="150.01511" />
    <path
       style="fill:#3a365a;fill-opacity:1;stroke-width:0.02699663;stroke-miterlimit:4;stroke-dasharray:none"
       d="M 384.41293,891.51757 C 294.38824,882.94894 223.09164,852.44459 168.41493,799.10251 155.40259,786.40779 145.82279,775.58633 135.84425,762.31026 114.43572,733.82702 97.592216,702.03337 84.758727,665.88169 79.11512,649.98376 71.066695,619.61482 71.777076,616.89832 c 0.503522,-1.92547 14.863926,-23.51663 15.641046,-23.51663 0.688714,0 24.495108,18.84475 25.154768,19.9121 0.1813,0.29335 0.98082,3.72777 1.77671,7.63206 1.92198,9.42831 4.99583,20.01318 9.43261,32.48135 3.44154,9.67134 3.57189,10.28935 2.35746,11.17736 -1.1923,0.87183 -1.15908,0.94096 0.45816,0.95336 1.5535,0.0119 2.44408,1.46639 8.16585,13.33621 17.64818,36.61119 37.65653,64.79894 65.11057,91.7277 10.66269,10.45867 17.10948,16.07789 27.03868,23.56771 45.55023,34.3596 97.93055,53.27932 160,57.79183 6.28571,0.45697 13.58824,1.04385 16.22784,1.30416 l 4.79927,0.4733 -5.05776,5.71429 c -2.78178,3.14285 -6.50142,7.39492 -8.26588,9.44903 l -3.2081,3.73476 5.56947,7.69381 c 3.06321,4.2316 6.34883,8.73847 7.30138,10.01525 l 1.7319,2.32143 -5.62049,-0.082 c -3.09127,-0.0451 -10.28121,-0.52563 -15.97763,-1.06781 z"
       id="path4593"
       inkscape:connector-curvature="0"
       transform="scale(0.26458333)"
       inkscape:export-filename="H:\Downloads\playing_at_learning.png"
       inkscape:export-xdpi="150.01511"
       inkscape:export-ydpi="150.01511" />
    <path
       style="fill:#3a365a;fill-opacity:1;stroke-width:0.02699663;stroke-miterlimit:4;stroke-dasharray:none"
       d="m 384.05578,891.52682 c -80.74788,-7.89276 -144.15933,-32.26201 -197.5,-75.89995 -9.68908,-7.92663 -28.32,-26.1642 -36.9095,-36.13023 -31.86644,-36.9733 -56.305908,-82.48193 -70.648034,-131.55341 -3.214334,-10.99782 -7.417694,-28.15322 -7.433995,-30.34076 -0.0116,-1.55637 14.948003,-24.22781 15.963162,-24.19234 0.447746,0.0156 6.27837,4.44243 12.956937,9.83731 11.03372,8.91293 12.19885,10.0684 12.75588,12.65014 2.53061,11.72909 5.49335,22.38204 9.46612,34.03678 3.63717,10.67022 4.45014,13.79495 3.79456,14.58488 -0.66629,0.80283 -0.56496,1.00992 0.50313,1.02822 1.02553,0.0176 3.11103,3.64086 8.94205,15.53571 40.61354,82.84862 106.43964,138.76708 189.25436,160.76923 21.9741,5.83807 43.00606,8.94074 75.83453,11.18724 l 6.97919,0.4776 -1.97919,2.38628 c -1.08856,1.31246 -4.82536,5.62132 -8.304,9.57527 l -6.32481,7.18898 6.62538,9.10696 c 3.64396,5.00883 6.93127,9.50874 7.30513,9.99981 0.89905,1.18093 -7.6874,1.08098 -21.2809,-0.24772 z"
       id="path4595"
       inkscape:connector-curvature="0"
       transform="scale(0.26458333)"
       inkscape:export-filename="H:\Downloads\playing_at_learning.png"
       inkscape:export-xdpi="150.01511"
       inkscape:export-ydpi="150.01511" />
    <path
       style="fill:#3a365a;fill-opacity:1;stroke-width:0.02699663;stroke-miterlimit:4;stroke-dasharray:none"
       d="M 387.27007,891.88452 C 303.66451,883.71789 242.15178,860.47784 187.28635,816.32889 178.41472,809.1901 158.14868,789.36881 149.58316,779.45312 120.65626,745.96652 97.938739,705.44397 82.997534,660.68053 78.810521,648.13635 72.824158,626.04596 71.921939,619.81026 c -0.457346,-3.16095 -0.338491,-3.40688 7.163164,-14.82143 4.195524,-6.38393 7.994564,-11.59823 8.44231,-11.58733 0.447746,0.0109 6.27837,4.43055 12.956937,9.82143 11.88075,9.59004 12.16055,9.8787 12.96245,13.37304 0.45078,1.96429 1.52283,6.625 2.38234,10.35715 0.85952,3.73214 3.77523,13.45543 6.47936,21.6073 2.70413,8.15188 4.73162,15.30367 4.50552,15.89286 -0.24048,0.62669 -0.009,1.07396 0.5582,1.07778 0.54619,0.004 3.82618,5.84961 7.51433,13.39286 8.02119,16.40541 13.3807,25.98762 21.39805,38.25738 53.68229,82.15543 131.73246,127.49274 232.0569,134.7958 6.28571,0.45757 13.31512,1.04114 15.6209,1.29683 l 4.19234,0.4649 -6.95975,7.85714 c -3.82786,4.32143 -7.59359,8.55367 -8.36827,9.40497 l -1.40852,1.54783 6.73608,9.22161 c 3.70483,5.07189 6.96904,9.59857 7.2538,10.05931 0.6076,0.98313 -8.35714,1.01023 -18.13801,0.0549 z"
       id="path4597"
       inkscape:connector-curvature="0"
       transform="scale(0.26458333)"
       inkscape:export-filename="H:\Downloads\playing_at_learning.png"
       inkscape:export-xdpi="150.01511"
       inkscape:export-ydpi="150.01511" />
    <path
       style="fill:#3a365a;fill-opacity:1;stroke-width:0.02699663;stroke-miterlimit:4;stroke-dasharray:none"
       d="M 386.55578,891.87639 C 331.54232,886.42898 288.26008,874.9441 247.98435,855.10666 215.94084,839.32392 192.76595,822.95726 167.7154,798.41881 150.55925,781.61337 137.84721,766.40435 125.24636,747.60773 107.94312,721.79655 91.822854,688.33611 81.915749,657.6674 78.358034,646.65404 71.555783,620.62268 71.555783,618.02112 c 0,-1.73981 14.751626,-24.63943 15.872391,-24.63943 0.732747,0 9.235919,6.56993 19.610986,15.15232 5.62028,4.64917 5.87172,4.98654 6.66768,8.94666 1.87458,9.32645 4.61501,19.15138 8.96347,32.1356 2.52987,7.55402 4.59976,14.19687 4.59976,14.7619 0,0.56503 0.27158,1.13447 0.60351,1.26542 0.33193,0.13095 4.12683,7.30953 8.43311,15.95238 4.30629,8.64286 10.34296,19.89286 13.41481,25 44.41081,73.83545 109.47532,121.28114 189.98533,138.53921 18.17993,3.89704 28.46153,5.19317 63.1405,7.95974 l 5.22011,0.41644 -1.64869,2.03042 c -0.90677,1.11674 -4.61912,5.42889 -8.24967,9.58257 l -6.60098,7.55215 6.24384,8.57 c 3.43411,4.7135 6.68484,9.21145 7.22382,9.99545 0.95873,1.39454 0.83482,1.42339 -5.71428,1.33054 -3.68185,-0.0522 -9.42641,-0.36545 -12.7657,-0.6961 z"
       id="path4599"
       inkscape:connector-curvature="0"
       transform="scale(0.26458333)"
       inkscape:export-filename="H:\Downloads\playing_at_learning.png"
       inkscape:export-xdpi="150.01511"
       inkscape:export-ydpi="150.01511" />
    <path
       style="fill:#3a365a;fill-opacity:1;stroke-width:0.75590552;stroke-miterlimit:4;stroke-dasharray:none;stroke:#3a2d5a;stroke-opacity:1"
       d="m 389.77007,892.17688 c -62.02216,-5.43502 -114.27784,-20.61939 -160,-46.49252 -10.03633,-5.67933 -29.69239,-19.07553 -39.64286,-27.01781 -11.62081,-9.27551 -37.2315,-34.63971 -46.33587,-45.88988 -26.73326,-33.03404 -48.52101,-73.68195 -62.110744,-115.87574 -3.77181,-11.71082 -10.124813,-36.06769 -10.124813,-38.81765 0,-1.77913 14.726024,-24.70159 15.868986,-24.70159 0.788235,0 9.738263,6.87289 19.225941,14.76395 l 6.16635,5.12866 1.20382,5.58941 c 2.04393,9.4901 4.57343,18.37514 9.07893,31.89035 8.24919,24.74522 27.63838,60.3636 46.2988,85.05196 49.62107,65.65028 117.70656,104.42797 200.7286,114.32377 4.91072,0.58533 15.34519,1.5713 23.18773,2.19103 7.84254,0.61975 14.35522,1.22286 14.47263,1.34027 0.11741,0.11741 -3.326,4.25496 -7.65202,9.19457 -4.32601,4.9396 -7.86548,9.36561 -7.86548,9.83558 0,0.46998 2.82983,4.75509 6.28851,9.52248 3.45869,4.76738 6.53123,9.06975 6.82787,9.56082 0.4181,0.69214 -0.95548,0.86587 -6.10994,0.77279 -3.65711,-0.066 -7.93501,-0.23274 -9.50644,-0.37045 z"
       id="path4601"
       inkscape:connector-curvature="0"
       transform="scale(0.26458333)"
       inkscape:export-filename="H:\Downloads\playing_at_learning.png"
       inkscape:export-xdpi="150.01511"
       inkscape:export-ydpi="150.01511" />
    <path
       style="fill:#bc332b;fill-opacity:1;stroke:#bc332b;stroke-width:0.19970123;stroke-miterlimit:4;stroke-dasharray:none;stroke-opacity:1"
       d="m 55.094714,144.01308 -11.110427,-8.54344 0.322186,-0.0526 c 0.288876,-0.0471 24.948499,-2.40162 86.945157,-8.30144 30.66253,-2.91796 37.01033,-3.51644 37.03503,-3.49182 0.0206,0.0204 -101.638694,28.84515 -101.945549,28.90579 -0.0992,0.0196 -3.140618,-2.28356 -11.246397,-8.51655 z"
       id="path4603"
       inkscape:connector-curvature="0"
       inkscape:export-filename="H:\Downloads\playing_at_learning.png"
       inkscape:export-xdpi="150.01511"
       inkscape:export-ydpi="150.01511" />
    <path
       style="fill:#bc332b;fill-opacity:1;stroke-width:0.75590552;stroke-miterlimit:4;stroke-dasharray:none;stroke:#bc332b;stroke-opacity:1"
       d="m 710.30451,497.8588 -12.7251,-10.62239 -1.8301,-7.35893 c -12.65222,-50.87535 -33.17074,-91.73259 -64.19037,-127.81821 -4.89051,-5.68922 -16.39409,-17.36561 -22.8383,-23.18141 -24.24407,-21.87988 -52.3853,-39.59287 -84.49405,-53.18325 -28.92802,-12.24409 -61.9176,-20.99694 -94.41126,-25.04932 -7.03701,-0.87761 -17.3632,-1.78797 -20.71428,-1.82618 -1.375,-0.0157 -3.18887,-0.13713 -4.03082,-0.26989 l -1.53081,-0.24138 6.48445,-9.64286 c 3.56645,-5.30357 6.55455,-9.88707 6.64023,-10.18554 0.0878,-0.30585 -2.97874,-4.96664 -7.02675,-10.67985 l -7.18252,-10.13716 5.64454,0.24732 c 26.98648,1.18244 60.47913,6.92221 89.57311,15.3505 51.44125,14.90212 97.16282,39.00366 134.00545,70.63924 53.20318,45.68386 89.11566,106.89542 106.82937,182.08692 0.99491,4.22321 1.9176,8.3612 2.05041,9.19553 l 0.24148,1.51696 -8.70621,10.87857 c -4.78842,5.98321 -8.78658,10.88422 -8.88479,10.89114 -0.0982,0.007 -5.90487,-4.7675 -12.90368,-10.60981 z"
       id="path4605"
       inkscape:connector-curvature="0"
       transform="scale(0.26458333)"
       inkscape:export-filename="H:\Downloads\playing_at_learning.png"
       inkscape:export-xdpi="150.01511"
       inkscape:export-ydpi="150.01511" />
    <path
       style="fill:#e1a730;fill-opacity:1;stroke-width:0.75590552;stroke-miterlimit:4;stroke-dasharray:none;stroke:#e1a730;stroke-opacity:1"
       d="m 459.8024,879.87206 c -6.47503,-4.7377 -11.82491,-8.66029 -11.88861,-8.71685 -0.0637,-0.0566 4.15009,-5.78986 9.364,-12.74067 l 9.47984,-12.63782 2.24314,-0.45014 c 1.23372,-0.24758 6.10028,-1.39701 10.81456,-2.5543 74.65967,-18.32786 133.47941,-58.2889 173.21452,-117.67873 26.68698,-39.88751 44.56707,-88.08515 51.93641,-140 1.65988,-11.69335 2.8805,-25.26049 2.88333,-32.04809 l 10e-4,-3.47667 10.0406,7.46892 10.04059,7.46892 10.01683,-7.52241 10.01683,-7.5224 -0.2298,9.42301 c -1.06739,43.77038 -11.85636,92.30325 -29.96193,134.78015 -34.0643,79.91718 -94.25079,139.0272 -175.99455,172.84682 -20.04167,8.29178 -43.09373,15.65798 -64.28572,20.54225 -2.65178,0.61117 -5.06832,1.18341 -5.37007,1.27163 -0.32124,0.0939 -5.42841,-3.41007 -12.32143,-8.45362 z"
       id="path4607"
       inkscape:connector-curvature="0"
       transform="scale(0.26458333)"
       inkscape:export-filename="H:\Downloads\playing_at_learning.png"
       inkscape:export-xdpi="150.01511"
       inkscape:export-ydpi="150.01511" />
    <path
       style="fill:#e1a730;fill-opacity:1;stroke:#e1a730;stroke-width:0.20202386;stroke-miterlimit:4;stroke-dasharray:none;stroke-opacity:1"
       d="m 66.220279,166.02668 0.0016,-13.60628 50.995471,-14.41581 c 28.04749,-7.92869 51.01426,-14.39706 51.03729,-14.37416 0.0231,0.0229 -2.68004,1.18276 -6.0068,2.57745 -24.65609,10.33666 -80.17905,33.62636 -81.726112,34.28087 l -1.339428,0.56667 -6.48186,9.28878 -6.481857,9.28876 z"
       id="path4609"
       inkscape:connector-curvature="0"
       inkscape:export-filename="H:\Downloads\playing_at_learning.png"
       inkscape:export-xdpi="150.01511"
       inkscape:export-ydpi="150.01511" />
  </g>
</svg>
